<svg width="495" height="77" viewBox="0 0 495 77" fill="none" xmlns="http://www.w3.org/2000/svg">
<g clip-path="url(#clip0_1598_13)">
<path d="M47.3 0L29.48 28.99V0H0V29.48H29.18L0 76.97L74.54 29.48V0H47.3Z" fill="white"/>
<path d="M105.43 58.97V18.77H122.53C130.93 18.77 137.11 23.75 137.11 32.39C137.11 41.03 130.93 46.01 122.53 46.01H111.91V58.97H105.43ZM111.91 24.59V40.19H123.31C128.59 40.19 130.69 38.15 130.69 32.39C130.69 26.63 128.59 24.59 123.31 24.59H111.91Z" fill="white"/>
<path d="M141.67 58.9698V28.9698H147.61V33.7098H147.91C149.11 30.9498 151.87 28.5498 156.25 28.5498C162.49 28.5498 164.89 33.1098 164.89 38.6898V40.6698H158.41V39.4698C158.41 35.5098 157.27 34.0698 153.49 34.0698C149.71 34.0698 148.15 35.5698 148.15 39.5298V58.9698H141.67Z" fill="white"/>
<path d="M168.13 44.0298C168.13 34.7898 173.83 28.5498 183.01 28.5498C192.19 28.5498 197.65 34.7898 197.65 44.0298C197.65 53.2698 192.13 59.5698 183.01 59.5698C173.89 59.5698 168.13 53.3298 168.13 44.0298ZM191.41 44.0298C191.41 37.3698 189.25 34.3098 183.01 34.3098C176.77 34.3098 174.49 37.3698 174.49 44.0298C174.49 50.6898 176.71 53.8098 183.01 53.8098C189.31 53.8098 191.41 50.7498 191.41 44.0298Z" fill="white"/>
<path d="M201.91 44.03C201.91 34.61 206.47 28.55 214.69 28.55C219.97 28.55 223.15 31.07 224.47 33.77H224.65V18.77H231.07V58.97H225.13V54.05H224.89C223.45 57.47 220.15 59.57 215.05 59.57C206.53 59.57 201.91 53.51 201.91 44.03ZM216.49 54.05C221.77 54.05 224.65 51.71 224.65 46.73V41.39C224.65 36.41 221.77 34.07 216.49 34.07C210.79 34.07 208.39 36.71 208.39 44.03C208.39 51.35 210.73 54.05 216.49 54.05Z" fill="white"/>
<path d="M237.55 47.5699V29.1499H244.03V46.4299C244.03 51.7699 246.07 53.9899 251.23 53.9899C256.39 53.9899 259.03 51.8299 259.03 45.9499V29.1499H265.51V58.9699H259.51V53.0299H259.27C257.83 56.4499 254.65 59.5699 248.83 59.5699C241.03 59.5699 237.55 54.3499 237.55 47.5699Z" fill="white"/>
<path d="M270.85 44.0898C270.85 34.7898 276.31 28.5498 285.67 28.5498C293.53 28.5498 298.93 33.4098 298.93 40.5498V41.0898H292.51V40.7298C292.51 36.3498 290.23 34.3698 285.25 34.3698C279.49 34.3698 277.27 37.6098 277.27 44.0898C277.27 50.5698 279.49 53.7498 285.25 53.7498C290.23 53.7498 292.51 51.8298 292.51 47.4498V47.0898H298.93V47.6298C298.93 54.7098 293.47 59.6298 285.43 59.6298C276.13 59.6298 270.85 53.3298 270.85 44.0898Z" fill="white"/>
<path d="M306.13 49.79V34.55H301.15V29.15H306.25L307.63 21.77H312.61V29.15H321.61V34.55H312.61V49.49C312.61 52.61 313.93 53.15 317.95 53.15H321.61V58.43C320.35 58.73 318.31 58.97 316.27 58.97C309.61 58.97 306.13 56.51 306.13 49.79Z" fill="white"/>
<path d="M325.75 25.37L325.69 18.77H332.17V25.37H325.75ZM325.75 58.97V28.97H332.23V58.97H325.75Z" fill="white"/>
<path d="M336.97 44.0298C336.97 34.7898 342.67 28.5498 351.85 28.5498C361.03 28.5498 366.49 34.7898 366.49 44.0298C366.49 53.2698 360.97 59.5698 351.85 59.5698C342.73 59.5698 336.97 53.3298 336.97 44.0298ZM360.25 44.0298C360.25 37.3698 358.09 34.3098 351.85 34.3098C345.61 34.3098 343.33 37.3698 343.33 44.0298C343.33 50.6898 345.55 53.8098 351.85 53.8098C358.15 53.8098 360.25 50.7498 360.25 44.0298Z" fill="white"/>
<path d="M371.65 58.9698V29.1498H377.59V34.7298H377.83C379.21 31.5498 382.39 28.5498 388.21 28.5498C395.95 28.5498 399.43 33.4698 399.43 40.2498V58.9698H392.95V41.6898C392.95 36.3498 391.27 34.1298 385.81 34.1298C380.35 34.1298 378.13 36.1698 378.13 41.7498V58.9698H371.65Z" fill="white"/>
<path d="M406.09 58.97V18.77H424.57C432.43 18.77 437.17 22.01 437.17 28.79C437.17 33.47 434.53 36.65 429.37 37.43V37.91C435.49 38.69 438.61 42.65 438.61 47.93C438.61 54.77 433.75 58.97 425.29 58.97H406.09ZM412.57 35.45H423.97C428.83 35.45 430.75 34.13 430.75 30.05C430.75 25.97 429.01 24.59 424.15 24.59H412.57V35.45ZM412.57 53.15H425.11C429.97 53.15 432.07 51.77 432.07 47.03C432.07 42.29 429.97 40.85 425.11 40.85H412.57V53.15Z" fill="white"/>
<path d="M442.27 44.0298C442.27 34.7898 447.97 28.5498 457.15 28.5498C466.33 28.5498 471.79 34.7898 471.79 44.0298C471.79 53.2698 466.27 59.5698 457.15 59.5698C448.03 59.5698 442.27 53.3298 442.27 44.0298ZM465.55 44.0298C465.55 37.3698 463.39 34.3098 457.15 34.3098C450.91 34.3098 448.63 37.3698 448.63 44.0298C448.63 50.6898 450.85 53.8098 457.15 53.8098C463.45 53.8098 465.55 50.7498 465.55 44.0298Z" fill="white"/>
<path d="M478.99 49.79V34.55H474.01V29.15H479.11L480.49 21.77H485.47V29.15H494.47V34.55H485.47V49.49C485.47 52.61 486.79 53.15 490.81 53.15H494.47V58.43C493.21 58.73 491.17 58.97 489.13 58.97C482.47 58.97 478.99 56.51 478.99 49.79Z" fill="white"/>
</g>
<defs>
<clipPath id="clip0_1598_13">
<rect width="494.47" height="76.97" fill="white"/>
</clipPath>
</defs>
</svg>
