<svg id="Layer_1" data-name="Layer 1" xmlns="http://www.w3.org/2000/svg" viewBox="0 0 1107.49 600.1"><defs><style>.cls-1{fill:#fff;}</style></defs><path class="cls-1" d="M409.72,1171.24a11,11,0,0,0,0,15.51l69.78,69.78A11,11,0,0,0,495,1241l-62-62,62-62a11,11,0,0,0-15.51-15.51ZM1514,1168H417.48V1190H1514Z" transform="translate(-406.51 -659.64)"/><path class="cls-1" d="M409.72,951.94a11,11,0,0,0,0,15.51l69.78,69.78A11,11,0,0,0,495,1021.72l-62-62,62-62a11,11,0,0,0-15.51-15.5ZM1514,948.73H417.48v21.93H1514Z" transform="translate(-406.51 -659.64)"/><path class="cls-1" d="M409.72,732.63a11,11,0,0,0,0,15.51l69.78,69.78A11,11,0,0,0,495,802.42l-62-62,62-62a11,11,0,0,0-15.51-15.51ZM1514,729.42H417.48v21.93H1514Z" transform="translate(-406.51 -659.64)"/></svg>