<svg width="409" height="409" viewBox="0 0 409 409" fill="none" xmlns="http://www.w3.org/2000/svg">
<g clip-path="url(#clip0_3955_2)">
<path d="M349.26 59.9601C224.87 -64.8299 9.84996 17.6701 0.139958 192.42C-0.300042 200.34 0.469958 208.43 0.139958 216.37C1.34996 221.27 1.19996 226.73 1.84996 231.83C13.44 321.98 87.04 395.33 177.05 407.09C182.14 407.75 187.6 407.58 192.5 408.8H216.44C390.88 399.1 473.46 184.57 349.26 59.9601ZM70.77 83.0201C89.59 63.0201 112.38 46.4201 138.22 36.7301C124.23 55.9801 113.48 76.9901 106.2 99.7101L64.8 91.0101L70.77 83.0201ZM47.1 116.03C47.9 114.69 49.15 111.86 50.76 111.81L99.08 122.99C95.52 146 90.84 168.99 91.13 192.42H24.88C26.17 166.77 33.9 138.17 47.1 116.03ZM49.99 294.68C48.49 294.67 48.2 294.48 47.32 293.33C45.36 290.8 40.9 280.83 39.36 277.34C31.03 258.39 25.65 237.08 24.88 216.37H91.13C91.47 233.51 93.29 250.74 96.14 267.66C96.63 270.58 100.08 281.73 98.78 283.5L49.99 294.68ZM71.16 326.18C69.08 323.86 65.54 319.88 64 317.37C63.61 316.73 62.83 316.65 63.2 315.38L105.54 306.97L121.84 344.94L139.02 372.06C113.96 363.07 88.93 346.06 71.16 326.18ZM192.5 381.65C158.9 370.45 141.78 334.81 130.23 303.81L158.58 301.01L192.5 300.21V381.65ZM192.5 276.26C169.27 275.8 146.14 277.96 123.09 280.21C118.91 259.19 115.28 237.88 115.08 216.37H192.5V276.26ZM192.5 192.42H115.08C115.06 170.36 118.99 148.56 123.1 126.99L192.5 131.74V192.42ZM192.5 107.78L130.23 103.38C142.01 72.4501 158.96 36.9801 192.5 25.5401V107.78ZM360.04 112.62C373.61 137.02 383.16 164.23 384.06 192.42H317.81C317.99 169.27 313.74 146.46 309.85 123.77L360.04 112.62ZM344.93 91.4201C344.93 92.4901 326.57 96.5401 324.22 97.0301C317.14 98.5001 309.88 99.6601 302.7 100.54C296.08 77.4101 284.65 56.1601 270.72 36.7301C299.73 47.8601 325.69 67.0701 344.93 91.4201ZM216.44 25.5401C249.99 36.9801 266.92 72.4501 278.71 103.38C278.71 103.9 275.12 104.5 274.31 104.59C264.99 105.61 254.13 106.46 244.77 106.98C235.38 107.5 225.83 106.82 216.44 107.78V25.5401ZM216.44 131.74L285.8 127.83C290.4 149.02 293.7 170.67 293.87 192.42H216.44V131.74ZM216.44 216.37H293.87C293.28 238.01 290.69 259.8 285.13 280.71C262.35 278.18 239.43 275.97 216.44 276.26V216.37ZM216.44 381.65V300.21C237.28 300.24 258.04 301.85 278.7 304.21C266.85 335.03 250.04 370.49 216.44 381.65ZM269.92 372.06L287.1 344.94C293.24 332.87 298.67 320.36 302.67 307.39L344.93 317.37C325.54 341.72 299.36 361.58 269.92 372.06ZM359.65 296.26L309.03 284.23C314.52 262.11 317.29 239.18 317.81 216.37H384.06C382.99 244.51 373.89 272.17 359.65 296.26Z" fill="white"/>
</g>
<defs>
<clipPath id="clip0_3955_2">
<rect width="408.79" height="408.8" fill="white"/>
</clipPath>
</defs>
</svg>
